<svg data-v-6805eed4="" version="1.0" xmlns="http://www.w3.org/2000/svg" xmlns:xlink="http://www.w3.org/1999/xlink"
    width="100%" height="100%" viewBox="0 0 207.000000 50.000000" preserveAspectRatio="xMidYMid meet"
    color-interpolation-filters="sRGB" style="margin: auto;">
    <g data-v-6805eed4="" fill="#ffffff" class="newinitialsvg-g newinitialsvg"
        transform="translate(5,5)">
        <g class="tp-name">
            <g transform="translate(0, 0.6725064000000032)">
                <g data-gra="path-name" fill="#ffffff" transform="translate(0,3)">
                    <g transform="scale(1.06)">
                        <path
                            d="M23.46-7.80L23.46-7.80Q22.95-7.40 22.13-7.14Q21.32-6.89 20.25-6.89L20.25-6.89Q18.92-6.89 18.03-7.22Q17.14-7.55 16.78-8.42L16.78-8.42Q14.69-13.62 13.26-17.29Q11.83-20.96 10.97-23.56L10.97-23.56L10.71-23.56Q10.56-20.15 10.43-17.29Q10.30-14.43 10.20-11.70Q10.10-8.98 9.97-6.17Q9.84-3.37 9.64-0.10L9.64-0.10Q9.13 0.05 8.36 0.20Q7.60 0.36 6.73 0.36L6.73 0.36Q3.32 0.36 3.32-2.19L3.32-2.19Q3.32-3.01 3.39-4.72Q3.47-6.43 3.60-8.70Q3.72-10.97 3.90-13.67Q4.08-16.37 4.26-19.13Q4.44-21.88 4.64-24.56Q4.85-27.23 5.00-29.53L5.00-29.53Q5.41-30.04 6.50-30.57Q7.60-31.11 9.33-31.11L9.33-31.11Q11.27-31.11 12.47-30.47Q13.67-29.84 14.28-28.36L14.28-28.36Q14.94-26.78 15.68-24.89Q16.42-23.00 17.19-21.01Q17.95-19.02 18.69-17.11Q19.43-15.20 20.09-13.52L20.09-13.52L20.30-13.52Q22.03-18.31 23.74-22.80Q25.45-27.29 26.72-30.40L26.72-30.40Q27.34-30.70 28.31-30.91Q29.27-31.11 30.29-31.11L30.29-31.11Q32.18-31.11 33.30-30.55Q34.43-29.99 34.68-28.87L34.68-28.87Q34.88-27.90 35.14-25.78Q35.39-23.66 35.65-20.96Q35.90-18.26 36.16-15.20Q36.41-12.14 36.62-9.31Q36.82-6.48 36.98-4.13Q37.13-1.79 37.18-0.46L37.18-0.46Q36.52-0.05 35.78 0.15Q35.04 0.36 33.97 0.36L33.97 0.36Q32.64 0.36 31.65-0.18Q30.65-0.71 30.55-2.19L30.55-2.19Q30.35-5.41 30.19-8.49Q30.04-11.58 29.94-14.33Q29.84-17.09 29.73-19.41Q29.63-21.73 29.58-23.41L29.58-23.41L29.33-23.41Q28.51-21.01 27.08-17.31Q25.65-13.62 23.46-7.80Z"
                            transform="translate(-3.3150000000000004, 31.671000000000003)"></path>
                    </g>
                </g>
            </g>
            <g transform="translate(37.89584000000001, 0.6725064000000032)">
                <g data-gra="path-name" fill="#00ff00" transform="translate(0,3)">
                    <g transform="scale(1.15 )">
                        <path
                            d="M26.83 0L5.05 0Q3.72 0 2.93-0.71Q2.14-1.43 2.14-2.65L2.14-2.65Q2.14-3.37 2.42-4.00Q2.70-4.64 3.11-5.51L3.11-5.51L12.90-24.79Q13.46-25.86 14.18-26.44Q14.89-27.03 15.91-27.03L15.91-27.03Q16.98-27.03 17.70-26.47Q18.41-25.91 18.97-24.79L18.97-24.79L28.76-5.51Q29.17-4.64 29.45-4.00Q29.73-3.37 29.73-2.65L29.73-2.65Q29.73-1.48 28.94-0.74Q28.15 0 26.83 0L26.83 0ZM23.21-4.90L15.91-19.89L8.67-4.90L23.21-4.90Z"
                            transform="translate(0, 29.671000000000003)"></path>
                    </g>
                </g>
            </g>
            <g transform="translate(69.1423, 0.6725064000000032)">
                <g data-gra="path-name" fill="#ffffff" transform="translate(0,3)">
                    <g transform="scale(1.06)">
                        <path
                            d="M19.84-0.71L19.84-0.71Q19.33-0.31 18.21 0.05Q17.09 0.41 15.76 0.41L15.76 0.41Q14.18 0.41 13.01-0.05Q11.83-0.51 11.42-1.38L11.42-1.38Q10.81-2.60 9.97-4.59Q9.13-6.58 8.19-9.00Q7.24-11.42 6.27-14.15Q5.30-16.88 4.36-19.61Q3.42-22.34 2.60-24.91Q1.79-27.49 1.22-29.68L1.22-29.68Q1.73-30.24 2.73-30.70Q3.72-31.16 4.90-31.16L4.90-31.16Q6.32-31.16 7.11-30.52Q7.91-29.89 8.42-28.36L8.42-28.36Q10.20-22.64 11.96-17.24Q13.72-11.83 15.71-6.17L15.71-6.17L15.96-6.17Q16.88-8.77 17.82-11.73Q18.77-14.69 19.69-17.82Q20.60-20.96 21.50-24.15Q22.39-27.34 23.15-30.45L23.15-30.45Q24.48-31.16 26.27-31.16L26.27-31.16Q27.69-31.16 28.64-30.52Q29.58-29.89 29.58-28.41L29.58-28.41Q29.58-27.49 29.02-25.35Q28.46-23.21 27.59-20.48Q26.72-17.75 25.63-14.69Q24.53-11.63 23.43-8.85Q22.34-6.07 21.39-3.90Q20.45-1.73 19.84-0.71Z"
                            transform="translate(-1.2240000000000002, 31.671000000000003)"></path>
                    </g>
                </g>
            </g>
            <g transform="translate(101.19966000000001, 0.6725064000000032)">
                <g data-gra="path-name" fill="#ffffff" transform="translate(0,3)">
                    <g transform="scale(1.06)">
                        <path
                            d="M25.70-30.96L25.70-30.96Q25.96-30.55 26.19-29.86Q26.42-29.17 26.42-28.36L26.42-28.36Q26.42-26.98 25.78-26.27Q25.14-25.55 24.02-25.55L24.02-25.55L16.98-25.55L16.98-0.05Q16.58 0.05 15.71 0.20Q14.84 0.36 13.92 0.36L13.92 0.36Q11.99 0.36 11.17-0.36Q10.35-1.07 10.35-2.75L10.35-2.75L10.35-25.55L1.79-25.55Q1.53-26.01 1.30-26.67Q1.07-27.34 1.07-28.15L1.07-28.15Q1.07-29.58 1.71-30.27Q2.35-30.96 3.47-30.96L3.47-30.96L25.70-30.96Z"
                            transform="translate(-1.0710000000000002, 31.671000000000003)"></path>
                    </g>
                </g>
            </g>
            <g transform="translate(130.06748000000002, 0.6725064000000032)">
                <g data-gra="path-name" fill="#ffffff" transform="translate(0,3)">
                    <g transform="scale(1.06)">
                        <path
                            d="M10.56-10.81L10.56-0.05Q10.10 0.05 9.26 0.20Q8.42 0.36 7.45 0.36L7.45 0.36Q5.51 0.36 4.72-0.36Q3.93-1.07 3.93-2.75L3.93-2.75L3.93-28.36Q3.93-29.33 4.44-29.84Q4.95-30.35 5.87-30.65L5.87-30.65Q7.50-31.21 9.72-31.44Q11.93-31.67 14.28-31.67L14.28-31.67Q21.01-31.67 24.38-28.89Q27.74-26.11 27.74-21.22L27.74-21.22Q27.74-18.00 26.06-15.63Q24.38-13.26 21.42-11.99L21.42-11.99Q23.66-9.08 25.73-6.45Q27.80-3.83 28.82-2.35L28.82-2.35Q28.41-1.02 27.39-0.28Q26.37 0.46 25.14 0.46L25.14 0.46Q23.56 0.46 22.72-0.26Q21.88-0.97 21.06-2.19L21.06-2.19L15.30-10.81L10.56-10.81ZM10.46-16.01L14.64-16.01Q17.54-16.01 19.30-17.29Q21.06-18.56 21.06-21.17L21.06-21.17Q21.06-26.32 14.18-26.32L14.18-26.32Q13.16-26.32 12.21-26.21Q11.27-26.11 10.46-26.01L10.46-26.01L10.46-16.01Z"
                            transform="translate(-3.9270000000000005, 31.671000000000003)"></path>
                    </g>
                </g>
            </g>
            <g class="tp-graph" transform="translate(158.44876000000002, 0)">
                <rect data-gra="graph-name" fill="none" x="0" y="3.319061279296875" width="7.168356000000001"
                    height="0"></rect>
                <g data-gra="path-name" transform="translate(-4.4772338814169643e-7,3)">
                    <g transform="scale(-1.0812000000000002, 1.0812000000000002) translate(-6.630000114440918, 0)"
                        fill="#00FF00">
                        <path
                            d="M7.50 0.36L7.50 0.36Q5.56 0.36 4.74-0.36Q3.93-1.07 3.93-2.75L3.93-2.75L3.93-30.96Q4.39-31.06 5.25-31.21Q6.12-31.37 6.99-31.37L6.99-31.37Q8.82-31.37 9.69-30.70Q10.56-30.04 10.56-28.25L10.56-28.25L10.56-0.05Q10.10 0.05 9.26 0.20Q8.42 0.36 7.50 0.36Z"
                            transform="translate(-3.9270000000000005, 31.671000000000003)"></path>
                    </g>
                </g>
            </g>
            <g transform="translate(167.617116, 0.6725064000000032)">
                <g data-gra="path-name" fill="#ffffff" transform="translate(0,3)">
                    <g transform="scale(1.06)">
                        <path
                            d="M21.11-2.14L15.05-11.17L7.14 0.31Q6.83 0.36 6.50 0.38Q6.17 0.41 5.87 0.41L5.87 0.41Q3.93 0.41 2.91-0.43Q1.89-1.28 1.89-2.60L1.89-2.60Q1.89-3.67 2.37-4.51Q2.86-5.36 3.72-6.48L3.72-6.48L10.81-15.66L1.84-28.15Q2.19-29.33 3.21-30.29Q4.23-31.26 5.87-31.26L5.87-31.26Q6.99-31.26 7.85-30.65Q8.72-30.04 9.59-28.71L9.59-28.71L15.30-20.25L22.75-30.91Q23.41-31.16 24.58-31.16L24.58-31.16Q26.27-31.16 27.21-30.35Q28.15-29.53 28.15-28.31L28.15-28.31Q28.15-27.29 27.64-26.47Q27.13-25.65 26.27-24.53L26.27-24.53Q24.58-22.34 22.85-20.15Q21.11-17.95 19.33-15.71L19.33-15.71L28.71-2.70Q28.36-1.28 27.39-0.43Q26.42 0.41 24.79 0.41L24.79 0.41Q23.61 0.41 22.80-0.18Q21.98-0.77 21.11-2.14L21.11-2.14Z"
                            transform="translate(-1.836, 31.671000000000003)"></path>
                    </g>
                </g>
            </g>
        </g> <!---->
    </g>
    <defs v-gra="od"></defs>
</svg>